<svg height="512pt" viewBox="-46 0 512 512" width="512pt" xmlns="http://www.w3.org/2000/svg"><path d="M90 120h45c4.14 0 7.5-3.355 7.5-7.5s-3.36-7.5-7.5-7.5H90c-4.14 0-7.5 3.355-7.5 7.5s3.36 7.5 7.5 7.5zm0 0M418.05 343.98a7.509 7.509 0 0 0-5.55-2.457h-150a7.509 7.509 0 0 0-5.55 2.457 7.506 7.506 0 0 0-1.915 5.766l15 155.477A7.499 7.499 0 0 0 277.5 512h120a7.499 7.499 0 0 0 7.465-6.777l15-155.477a7.506 7.506 0 0 0-1.914-5.766zm-43.948 12.543l-6.977 72.325c-.418 4.343-4.613 8.152-8.977 8.152h-41.296c-4.364 0-8.555-3.809-8.977-8.152l-6.977-72.325zM390.687 497H284.312l-13.554-140.477h15.07l7.117 73.766c1.157 11.973 11.88 21.711 23.907 21.711h41.296c12.028 0 22.75-9.738 23.907-21.71l7.117-73.767h15.07zm0 0"/><path d="M172.5 107.21V7.5A7.5 7.5 0 0 0 165 0H60a7.5 7.5 0 0 0-7.5 7.5v99.71c-14.234 5.622-26.922 15.29-36.14 27.642C5.655 149.187 0 166.192 0 184.023V504.5a7.5 7.5 0 0 0 7.5 7.5h210a7.5 7.5 0 0 0 7.5-7.5V184.023c0-17.832-5.656-34.835-16.36-49.175-9.218-12.348-21.906-22.016-36.14-27.637zM67.5 45h90v15h-90zm90-30v15h-90V15zM62.266 119.648A7.498 7.498 0 0 0 67.5 112.5V75h90v37.5c0 3.27 2.117 6.16 5.234 7.148 25.414 8.055 43.82 30.832 46.825 56.875h-15.125c-2.914-19.55-16.993-36.476-36.23-42.574a7.56 7.56 0 0 0-2.267-.351H69.06c-.77 0-1.532.117-2.266.351-19.238 6.098-33.316 23.024-36.227 42.574H15.441c3.004-26.043 21.41-48.82 46.825-56.875zM15 341.523v-150h195v150zm30.785-165c2.676-12.695 11.965-23.539 24.492-27.925h84.446c12.527 4.386 21.816 15.23 24.488 27.925zM15 497V356.523h165V467H45v-87.977c0-4.14-3.36-7.5-7.5-7.5s-7.5 3.36-7.5 7.5V474.5a7.5 7.5 0 0 0 7.5 7.5h150a7.5 7.5 0 0 0 7.5-7.5V356.523h15V497zm0 0"/></svg>